<?xml version="1.0" encoding="utf-8" ?><svg xmlns="http://www.w3.org/2000/svg" xmlns:xlink="http://www.w3.org/1999/xlink" width="24" height="22" viewBox="0 0 24 22"><clipPath id="cl_3"><rect x="-5.0365925e-06" y="-4.863739e-05" width="24" height="22"/></clipPath><g clip-path="url(#cl_3)"><path fill="#FE9400" transform="matrix(0.303797 0 0 0.314286 -0.303802 2.19995)" d="M39.0616 0.899199C40.0264 1.19555 43.689 0.731437 45.4579 1.13068C54.9307 3.26874 59.2889 14.4316 57.1231 23.1225C60.1972 21.8474 62.2806 20.3079 65.7537 21.3676C75.5905 24.369 81.9409 34.0504 78.5146 44.4003C77.0559 48.767 73.9364 52.3838 69.8313 54.468C64.9295 56.9203 60.6641 56.8289 55.4818 55.2141C52.1976 54.1907 46.7408 51.0176 48.1424 46.8374C50.882 43.4526 58.646 52.7047 64.3851 50.7402C67.7184 49.5991 69.3274 47.9427 71.3689 44.9435C73.1319 42.3534 73.8484 39.0524 73.1064 36.0787C70.8671 27.1041 62.126 27.7945 56.2548 24.1113C54.6169 27.5094 52.1282 30.7881 49.0417 32.7993C37.4092 40.379 31.0406 30.117 20.5429 27.5054C18.2123 26.9256 15.0545 27.5627 13.0838 28.9855C9.58515 31.5115 8.84267 34.1985 8.0907 38.1771C8.09214 38.8484 8.11511 39.5195 8.15957 40.1893C8.78103 48.3624 17.7966 53.5688 25.1042 50.1396C28.0157 48.7733 31.0358 39.8681 34.2566 39.6125C34.8554 39.8934 35.1741 40.0787 35.3538 40.7328C39.0119 54.0531 20.2628 59.7504 10.7849 54.3057C6.05802 51.5903 5.15267 50.2192 3.27847 45.5687C-0.48404 36.2328 4.54233 25.8304 13.5779 22.0705C21.6926 18.9748 32.4148 27.0346 39.7861 30.6172C48.2709 28.7571 49.0183 26.325 52.58 19.0148C49.8439 11.2782 44.1303 1.17929 32.8314 9.10012C30.875 10.4716 28.2744 18.5906 24.3683 17.3389C23.6156 16.7843 23.4024 15.7824 23.1152 14.8857C24.9006 6.40103 30.3677 1.37121 39.0616 0.899199Z"/></g></svg>